<?xml version="1.0" standalone="no"?>
<!DOCTYPE svg PUBLIC "-//W3C//DTD SVG 20010904//EN"
 "http://www.w3.org/TR/2001/REC-SVG-20010904/DTD/svg10.dtd">
<svg version="1.0" xmlns="http://www.w3.org/2000/svg"
 width="1500.000000pt" height="1500.000000pt" viewBox="0 0 1500.000000 1500.000000"
 preserveAspectRatio="xMidYMid meet">
<metadata>
Created by potrace 1.14, written by Peter Selinger 2001-2017
</metadata>
<g transform="translate(0.000000,1500.000000) scale(0.100000,-0.100000)"
fill="#000000" stroke="none">
<path d="M6995 12543 c-275 -134 -536 -261 -580 -283 l-80 -38 278 -1 c152 -1
277 -3 277 -6 0 -3 -9 -24 -20 -46 -11 -21 -33 -83 -48 -137 -25 -89 -27 -111
-27 -277 0 -213 18 -300 91 -454 97 -206 247 -349 433 -413 97 -33 266 -33
370 1 194 64 374 249 461 474 102 261 93 548 -25 839 -7 17 12 18 276 20 l282
3 -589 279 c-324 153 -591 280 -594 281 -3 2 -230 -107 -505 -242z m865 -523
c243 -29 251 -30 263 -59 7 -16 11 -94 11 -211 0 -173 -2 -191 -28 -275 -45
-149 -108 -257 -206 -355 -128 -129 -242 -180 -400 -180 -288 0 -539 247 -615
605 -21 96 -24 304 -6 386 l12 57 128 17 c71 9 178 20 237 25 129 10 484 4
604 -10z"/>
<path d="M8540 12160 c0 -14 -12 -171 -25 -350 l-23 -325 24 -37 c13 -21 26
-38 28 -38 3 0 14 16 26 35 l22 36 -22 342 c-20 321 -27 397 -30 337z"/>
<path d="M4776 11673 c19 -65 55 -196 81 -292 l48 -173 275 -209 c151 -115
443 -336 648 -492 l373 -282 5 -118 c16 -430 235 -1125 620 -1969 48 -105 65
-130 58 -85 -2 12 -13 139 -24 282 -17 227 -47 607 -155 2005 -14 179 -29 328
-33 331 -4 4 -432 253 -952 554 -520 301 -949 551 -954 556 -23 21 -21 2 10
-108z"/>
<path d="M9280 11229 c-640 -371 -966 -565 -968 -577 -2 -13 -153 -1950 -198
-2542 -3 -47 -4 -83 -1 -80 3 3 39 79 80 170 365 806 568 1454 594 1901 l8
127 590 447 c744 563 698 527 708 561 4 16 41 146 82 289 40 143 72 261 71
262 -1 1 -436 -250 -966 -558z"/>
<path d="M7280 10664 c0 -9 211 -254 218 -254 4 1 34 35 67 77 33 41 79 100
103 129 l44 54 -216 0 c-119 0 -216 -3 -216 -6z"/>
<path d="M7482 10263 c-54 -516 -176 -1687 -196 -1878 -16 -151 -29 -121 115
-273 l95 -101 108 120 109 121 -7 61 c-3 34 -51 509 -106 1056 -55 547 -102
996 -104 998 -1 2 -8 -45 -14 -104z"/>
<path d="M6037 7573 c-3 -5 -5 -117 -5 -250 l1 -243 821 0 821 0 -2 247 -2
248 -815 3 c-448 1 -817 -1 -819 -5z"/>
<path d="M3300 6150 l0 -1420 300 0 300 0 0 545 0 545 163 0 162 0 339 -545
338 -545 334 0 334 0 -48 68 c-27 37 -147 213 -267 392 -120 179 -283 421
-362 538 -79 117 -146 219 -149 227 -4 9 12 23 48 41 209 105 366 279 434 479
33 97 44 284 25 414 -49 333 -258 544 -627 632 -179 42 -290 49 -821 49 l-503
0 0 -1420z m1075 905 c204 -58 280 -156 280 -360 -1 -86 -5 -108 -26 -155 -35
-76 -77 -121 -146 -158 -101 -53 -158 -64 -380 -69 l-203 -5 0 387 0 387 208
-5 c152 -3 223 -9 267 -22z"/>
<path d="M8210 6150 l0 -1420 298 0 297 0 0 1420 0 1420 -297 0 -298 0 0
-1420z"/>
<path d="M9335 6151 l0 -1421 490 0 c530 0 651 8 847 54 576 137 926 521 1003
1103 19 144 19 433 0 573 -82 583 -461 966 -1069 1082 -103 20 -153 21 -691
25 l-580 4 0 -1420z m1205 900 c360 -107 530 -392 530 -889 0 -339 -70 -552
-235 -718 -166 -167 -350 -224 -722 -224 l-183 0 0 931 0 931 268 -5 c239 -4
275 -6 342 -26z"/>
<path d="M6032 6140 l1 -250 819 2 819 3 2 248 2 247 -821 0 -822 0 0 -250z"/>
<path d="M6032 4980 l-1 -250 822 0 822 0 0 250 0 250 -821 0 -821 0 -1 -250z"/>
<path d="M3494 4269 c-71 -27 -137 -88 -171 -157 l-28 -57 0 -800 c0 -795 0
-800 21 -845 32 -68 88 -126 152 -157 l57 -28 3970 0 3970 0 57 28 c65 32 121
89 152 156 21 46 21 50 21 841 0 758 -1 797 -19 844 -24 63 -86 130 -151 164
l-50 27 -3965 2 c-3931 2 -3965 2 -4016 -18z m1725 -288 c46 -12 110 -34 142
-49 l58 -27 -47 -117 c-26 -64 -50 -119 -53 -122 -3 -3 -52 13 -110 37 -100
40 -108 41 -214 42 -100 0 -114 -2 -161 -27 -136 -72 -205 -227 -205 -463 -1
-126 16 -222 50 -301 28 -61 93 -128 154 -155 46 -21 67 -24 172 -23 117 0
152 6 338 61 16 5 17 -6 17 -125 l0 -130 -62 -21 c-180 -59 -420 -66 -573 -17
-223 72 -360 246 -406 519 -18 107 -7 375 20 462 58 195 168 333 325 411 50
24 123 51 161 59 100 20 286 14 394 -14z m2267 18 c209 -37 361 -144 445 -314
55 -112 79 -215 85 -370 18 -419 -140 -685 -461 -777 -67 -19 -104 -23 -230
-23 -127 0 -162 3 -230 23 -228 66 -371 216 -437 457 -18 69 -21 106 -21 270
0 163 3 201 21 268 71 257 243 419 497 466 70 12 260 13 331 0z m2563 -554
c172 -311 314 -565 315 -565 1 0 -1 254 -3 565 l-3 565 141 0 141 0 -2 -752
-3 -753 -192 -3 -192 -2 -24 37 c-13 21 -158 282 -322 581 -164 298 -300 541
-301 539 -2 -2 1 -75 6 -162 5 -88 10 -348 10 -578 l0 -418 -137 3 -138 3 -3
753 -2 752 197 0 198 0 314 -565z"/>
<path d="M7181 3729 c-148 -59 -223 -215 -223 -464 0 -212 48 -352 147 -427
63 -47 120 -63 230 -63 82 0 97 3 157 33 139 68 198 206 198 459 -1 242 -61
382 -194 451 -44 22 -66 26 -156 29 -88 3 -114 0 -159 -18z"/>
</g>
</svg>
